<svg width="106" height="24" viewBox="0 0 106 24" fill="none" xmlns="http://www.w3.org/2000/svg">
<path d="M37.0311 18.096C33.7671 18.096 31.7351 15.84 31.7351 12.4C31.7351 8.992 33.8311 6.704 37.1431 6.704C39.7031 6.704 41.5431 8.24 41.9111 10.608H40.0071C39.6391 9.2 38.5831 8.32 37.0631 8.32C34.9351 8.32 33.6231 10 33.6231 12.4C33.6231 14.784 34.9031 16.48 37.0151 16.48C38.5671 16.48 39.6391 15.616 39.9911 14.192H41.8951C41.5431 16.56 39.6391 18.096 37.0311 18.096ZM45.0171 18H43.4011V9.808H45.4811L48.3291 16L51.1131 9.808H53.1451L53.1611 18H51.5451V12.368L48.9531 18H47.6091L45.0171 12.368V18ZM58.8862 18.096C56.3902 18.096 54.7102 16.416 54.7102 13.904C54.7102 11.408 56.3902 9.712 58.8862 9.712C61.3822 9.712 63.0622 11.408 63.0622 13.904C63.0622 16.416 61.3822 18.096 58.8862 18.096ZM58.8862 16.624C60.3422 16.624 61.3022 15.488 61.3022 13.904C61.3022 12.32 60.3422 11.184 58.8862 11.184C57.4302 11.184 56.4862 12.32 56.4862 13.904C56.4862 15.488 57.4302 16.624 58.8862 16.624ZM67.9982 18H66.2702V11.328H63.4862V9.808H70.7822V11.328H67.9982V18ZM76.3276 9.712C78.5676 9.712 80.1996 11.28 80.1996 13.904C80.1996 16.432 78.5676 18.096 76.3276 18.096C75.0636 18.096 74.1836 17.584 73.6716 16.848V21.2H71.9436V9.808H73.4476L73.6556 11.024C74.1996 10.304 75.0476 9.712 76.3276 9.712ZM76.0396 16.64C77.4796 16.64 78.4396 15.504 78.4396 13.904C78.4396 12.288 77.4796 11.184 76.0396 11.184C74.5996 11.184 73.6556 12.288 73.6556 13.872C73.6556 15.504 74.5996 16.64 76.0396 16.64ZM85.6322 18.096C83.0562 18.096 81.4402 16.432 81.4402 13.92C81.4402 11.392 83.0562 9.712 85.4722 9.712C87.8402 9.712 89.4242 11.216 89.4722 13.616C89.4722 13.824 89.4562 14.048 89.4242 14.272H83.2482V14.384C83.2962 15.776 84.1762 16.688 85.5362 16.688C86.5922 16.688 87.3602 16.16 87.6002 15.248H89.3282C89.0402 16.864 87.6642 18.096 85.6322 18.096ZM83.3122 13.008H87.6802C87.5362 11.792 86.6882 11.104 85.4882 11.104C84.3842 11.104 83.4402 11.84 83.3122 13.008ZM94.4157 18H92.6877V11.328H89.9037V9.808H97.1997V11.328H94.4157V18ZM102.121 18H98.3611V9.808H100.089V12.352H102.121C104.185 12.352 105.385 13.408 105.385 15.184C105.385 16.944 104.185 18 102.121 18ZM100.089 13.728V16.624H101.833C103.001 16.624 103.625 16.096 103.625 15.184C103.625 14.224 103.001 13.728 101.833 13.728H100.089Z" fill="#C61F1F"/>
<path d="M6 20.1957V3.80421C6 3.01878 6.86395 2.53993 7.53 2.95621L20.6432 11.152C21.2699 11.5436 21.2699 12.4563 20.6432 12.848L7.53 21.0437C6.86395 21.46 6 20.9812 6 20.1957Z" fill="#C61F1F"/>
</svg>
