<svg width="24" height="24" viewBox="0 0 24 24" fill="none" xmlns="http://www.w3.org/2000/svg">
<g clip-path="url(#clip0_957_26098)">
<path d="M12 0.599976C8.97651 0.599976 6.07687 1.80104 3.93896 3.93896C1.80104 6.07687 0.599976 8.97651 0.599976 12C0.599976 15.0234 1.80104 17.9231 3.93896 20.061C6.07687 22.1989 8.97651 23.4 12 23.4C15.0234 23.4 17.9231 22.1989 20.061 20.061C22.1989 17.9231 23.4 15.0234 23.4 12C23.4 8.97651 22.1989 6.07687 20.061 3.93896C17.9231 1.80104 15.0234 0.599976 12 0.599976Z" fill="#16528C"/>
<path d="M13.5432 15.0216H16.4934L16.9566 12.0246H13.5426V10.3866C13.5426 9.14164 13.9494 8.03764 15.114 8.03764H16.9854V5.42224C16.6566 5.37784 15.9612 5.28064 14.6472 5.28064C11.9034 5.28064 10.2948 6.72964 10.2948 10.0308V12.0246H7.47424V15.0216H10.2948V23.259C10.8534 23.343 11.4192 23.4 12 23.4C12.525 23.4 13.0374 23.352 13.5432 23.2836V15.0216Z" fill="white"/>
</g>
<defs>
<clipPath id="clip0_957_26098">
<rect width="24" height="24" fill="white"/>
</clipPath>
</defs>
</svg>
