<svg width="80" height="48" viewBox="0 0 80 48" fill="none" xmlns="http://www.w3.org/2000/svg">
<path d="M21.6512 43H20.2232L23.3672 34.6H25.0112L28.1432 43H26.6672L25.8752 40.924H22.4312L21.6512 43ZM24.1472 36.088L22.8152 39.748H25.4912L24.1472 36.088ZM33.2702 45.4H31.9982V43.048C29.8742 42.976 28.5302 41.788 28.5302 39.928C28.5302 38.092 29.8862 36.892 31.9982 36.808V34.792H33.2702V36.808C35.3942 36.892 36.7382 38.068 36.7382 39.928C36.7382 41.764 35.3822 42.976 33.2702 43.048V45.4ZM32.0102 41.956V37.9C30.6662 37.948 29.8382 38.704 29.8382 39.928C29.8382 41.164 30.6662 41.908 32.0102 41.956ZM33.2582 37.9V41.956C34.6142 41.908 35.4182 41.164 35.4182 39.928C35.4182 38.704 34.6142 37.948 33.2582 37.9ZM39.0296 43H37.9016V36.856H39.1616V41.116L42.4736 36.856H43.6136V43H42.3536V38.728L39.0296 43ZM53.526 43H45.006V36.856H46.302V41.86H48.618V36.856H49.914V41.86H52.23V36.856H53.526V43ZM60.5389 41.872H60.8029V43H60.1189C59.2789 43 58.9909 42.628 58.9909 42.016C58.5829 42.64 57.9589 43.072 56.9629 43.072C55.6189 43.072 54.6829 42.412 54.6829 41.272C54.6829 40.012 55.5949 39.304 57.3109 39.304H58.8589V38.932C58.8589 38.248 58.3669 37.828 57.5149 37.828C56.7469 37.828 56.2309 38.188 56.1349 38.728H54.8629C54.9949 37.528 56.0269 36.784 57.5749 36.784C59.2069 36.784 60.1429 37.564 60.1429 39.016V41.476C60.1429 41.788 60.2749 41.872 60.5389 41.872ZM58.8589 40.48V40.264H57.2509C56.4469 40.264 56.0029 40.564 56.0029 41.188C56.0029 41.704 56.4349 42.064 57.1429 42.064C58.2229 42.064 58.8469 41.428 58.8589 40.48Z" fill="#C61F1F"/>
<path d="M30 6.00087C30 5.44811 30.4553 5 30.9918 5H49.0082C49.556 5 50 5.44463 50 6.00087V19.9991C50 20.5519 49.5447 21 49.0082 21H30.9918C30.4441 21 30 20.5554 30 19.9991V6.00087ZM33 22H47V24H33V22Z" fill="#C61F1F"/>
</svg>
