<svg width="80" height="48" viewBox="0 0 80 48" fill="none" xmlns="http://www.w3.org/2000/svg">
<path d="M46.031 18.6168L50.3137 22.8995L48.8995 24.3137L44.6168 20.031C43.0769 21.263 41.124 22 39 22C34.032 22 30 17.968 30 13C30 8.032 34.032 4 39 4C43.968 4 48 8.032 48 13C48 15.124 47.263 17.0769 46.031 18.6168ZM44.0247 17.8748C45.2475 16.6146 46 14.8956 46 13C46 9.1325 42.8675 6 39 6C35.1325 6 32 9.1325 32 13C32 16.8675 35.1325 20 39 20C40.8956 20 42.6146 19.2475 43.8748 18.0247L44.0247 17.8748Z" fill="#A1A1A1"/>
<path d="M24.7361 43H23.3561V34.6H29.9681V43H28.5881V35.824H24.7361V43ZM34.3927 43.072C32.5207 43.072 31.2607 41.812 31.2607 39.928C31.2607 38.056 32.5207 36.784 34.3927 36.784C36.2647 36.784 37.5247 38.056 37.5247 39.928C37.5247 41.812 36.2647 43.072 34.3927 43.072ZM34.3927 41.968C35.4847 41.968 36.2047 41.116 36.2047 39.928C36.2047 38.74 35.4847 37.888 34.3927 37.888C33.3007 37.888 32.5927 38.74 32.5927 39.928C32.5927 41.116 33.3007 41.968 34.3927 41.968ZM39.8148 43H38.6868V36.856H39.9468V41.116L43.2588 36.856H44.3988V43H43.1388V38.728L39.8148 43ZM48.6112 43.072C46.7512 43.072 45.5632 41.86 45.5632 39.94C45.5632 38.044 46.7872 36.784 48.6472 36.784C50.2312 36.784 51.2152 37.66 51.4672 39.052H50.1112C49.9432 38.332 49.4272 37.888 48.6232 37.888C47.5792 37.888 46.8952 38.728 46.8952 39.94C46.8952 41.14 47.5792 41.968 48.6232 41.968C49.4152 41.968 49.9432 41.512 50.0992 40.804H51.4672C51.2272 42.196 50.1832 43.072 48.6112 43.072ZM53.8751 43H52.5791V36.856H53.8751V39.316H55.0271L56.7911 36.856H58.2431L56.1191 39.784L58.4231 43H56.8871L55.0391 40.456H53.8751V43Z" fill="#A1A1A1"/>
</svg>
