<svg width="80" height="48" viewBox="0 0 80 48" fill="none" xmlns="http://www.w3.org/2000/svg">
<path d="M30.0049 5.99979C30.0049 5.4475 30.4526 4.99979 31.0049 4.99979H49.0049C49.5572 4.99979 50.0049 5.4475 50.0049 5.99979V11.4998C48.6242 11.4998 47.5049 12.6191 47.5049 13.9998C47.5049 15.3805 48.6242 16.4998 50.0049 16.4998V21.9998C50.0049 22.5521 49.5572 22.9998 49.0049 22.9998H31.0049C30.4526 22.9998 30.0049 22.5521 30.0049 21.9998V5.99979ZM36.0902 20.9998C36.2962 20.4172 36.8518 19.9998 37.5049 19.9998C38.158 19.9998 38.7136 20.4172 38.9195 20.9998H48.0049V18.032C46.5232 17.2957 45.5049 15.7666 45.5049 13.9998C45.5049 12.2329 46.5232 10.7039 48.0049 9.96755V6.99979H38.9195C38.7136 7.58238 38.158 7.99979 37.5049 7.99979C36.8518 7.99979 36.2962 7.58238 36.0902 6.99979H32.0049V20.9998H36.0902ZM37.5049 12.9998C36.6765 12.9998 36.0049 12.3282 36.0049 11.4998C36.0049 10.6714 36.6765 9.99979 37.5049 9.99979C38.3333 9.99979 39.0049 10.6714 39.0049 11.4998C39.0049 12.3282 38.3333 12.9998 37.5049 12.9998ZM37.5049 17.9998C36.6765 17.9998 36.0049 17.3282 36.0049 16.4998C36.0049 15.6714 36.6765 14.9998 37.5049 14.9998C38.3333 14.9998 39.0049 15.6714 39.0049 16.4998C39.0049 17.3282 38.3333 17.9998 37.5049 17.9998Z" fill="#A1A1A1"/>
<path d="M23.4633 43H20.0793V34.6H25.4673V35.8H21.4593V37.96H23.4513C25.1193 37.96 26.2593 38.764 26.2593 40.468C26.2593 42.1 25.1313 43 23.4633 43ZM21.4593 39.148V41.812H23.3313C24.2793 41.812 24.8553 41.296 24.8553 40.48C24.8553 39.664 24.2673 39.148 23.3313 39.148H21.4593ZM28.461 43H27.333V36.856H28.593V41.116L31.905 36.856H33.045V43H31.785V38.728L28.461 43ZM34.2573 43H33.8373V41.86H34.0533C34.6893 41.86 34.9413 41.464 34.9413 39.808V36.856H39.8253V43H38.5293V37.996H36.1653V39.856C36.1653 42.292 35.5413 43 34.2573 43ZM44.1296 43.072C42.1976 43.072 40.9856 41.824 40.9856 39.94C40.9856 38.044 42.1976 36.784 44.0096 36.784C45.7856 36.784 46.9736 37.912 47.0096 39.712C47.0096 39.868 46.9976 40.036 46.9736 40.204H42.3416V40.288C42.3776 41.332 43.0376 42.016 44.0576 42.016C44.8496 42.016 45.4256 41.62 45.6056 40.936H46.9016C46.6856 42.148 45.6536 43.072 44.1296 43.072ZM42.3896 39.256H45.6656C45.5576 38.344 44.9216 37.828 44.0216 37.828C43.1936 37.828 42.4856 38.38 42.3896 39.256ZM50.7172 43H49.4212V37.996H47.3332V36.856H52.8052V37.996H50.7172V43ZM56.4002 43H53.6762V36.856H54.9722V38.764H56.4002C57.9482 38.764 58.8602 39.556 58.8602 40.888C58.8602 42.208 57.9482 43 56.4002 43ZM61.0562 43H59.7602V36.856H61.0562V43ZM54.9722 39.796V41.968H56.1842C57.0602 41.968 57.5402 41.572 57.5402 40.888C57.5402 40.168 57.0602 39.796 56.1842 39.796H54.9722Z" fill="#A1A1A1"/>
</svg>
