<svg width="80" height="48" viewBox="0 0 80 48" fill="none" xmlns="http://www.w3.org/2000/svg">
<path d="M34 6V22H46V6H34ZM33 4H47C47.5523 4 48 4.44772 48 5V23C48 23.5523 47.5523 24 47 24H33C32.4477 24 32 23.5523 32 23V5C32 4.44772 32.4477 4 33 4Z" fill="#A1A1A1"/>
<path d="M30.75 8L30.75 7.25L29.25 7.25L29.25 8L30.75 8ZM29.25 8L29.25 20L30.75 20L30.75 8L29.25 8Z" fill="#A1A1A1"/>
<path d="M50.75 8L50.75 7.25L49.25 7.25L49.25 8L50.75 8ZM49.25 8L49.25 20L50.75 20L50.75 8L49.25 8Z" fill="#A1A1A1"/>
<path d="M22.5613 43.072C20.1133 43.072 18.5893 41.38 18.5893 38.8C18.5893 36.244 20.1613 34.528 22.6453 34.528C24.5653 34.528 25.9453 35.68 26.2213 37.456H24.7933C24.5173 36.4 23.7253 35.74 22.5853 35.74C20.9893 35.74 20.0053 37 20.0053 38.8C20.0053 40.588 20.9653 41.86 22.5493 41.86C23.7133 41.86 24.5173 41.212 24.7813 40.144H26.2093C25.9453 41.92 24.5173 43.072 22.5613 43.072ZM30.2548 43.072C28.3228 43.072 27.1108 41.824 27.1108 39.94C27.1108 38.044 28.3228 36.784 30.1348 36.784C31.9108 36.784 33.0988 37.912 33.1348 39.712C33.1348 39.868 33.1228 40.036 33.0988 40.204H28.4668V40.288C28.5028 41.332 29.1628 42.016 30.1828 42.016C30.9748 42.016 31.5508 41.62 31.7308 40.936H33.0268C32.8108 42.148 31.7788 43.072 30.2548 43.072ZM28.5148 39.256H31.7908C31.6828 38.344 31.0468 37.828 30.1468 37.828C29.3188 37.828 28.6108 38.38 28.5148 39.256ZM39.9186 41.872H40.1826V43H39.4986C38.6586 43 38.3706 42.628 38.3706 42.016C37.9626 42.64 37.3386 43.072 36.3426 43.072C34.9986 43.072 34.0626 42.412 34.0626 41.272C34.0626 40.012 34.9746 39.304 36.6906 39.304H38.2386V38.932C38.2386 38.248 37.7466 37.828 36.8946 37.828C36.1266 37.828 35.6106 38.188 35.5146 38.728H34.2426C34.3746 37.528 35.4066 36.784 36.9546 36.784C38.5866 36.784 39.5226 37.564 39.5226 39.016V41.476C39.5226 41.788 39.6546 41.872 39.9186 41.872ZM38.2386 40.48V40.264H36.6306C35.8266 40.264 35.3826 40.564 35.3826 41.188C35.3826 41.704 35.8146 42.064 36.5226 42.064C37.6026 42.064 38.2266 41.428 38.2386 40.48ZM45.3645 39.316V36.856H46.6605V43H45.3645V40.456H42.3045V43H41.0085V36.856H42.3045V39.316H45.3645ZM50.8743 43.072C49.0143 43.072 47.8263 41.86 47.8263 39.94C47.8263 38.044 49.0503 36.784 50.9103 36.784C52.4943 36.784 53.4783 37.66 53.7303 39.052H52.3743C52.2063 38.332 51.6903 37.888 50.8863 37.888C49.8423 37.888 49.1583 38.728 49.1583 39.94C49.1583 41.14 49.8423 41.968 50.8863 41.968C51.6783 41.968 52.2063 41.512 52.3623 40.804H53.7303C53.4903 42.196 52.4463 43.072 50.8743 43.072ZM57.5662 43H54.8422V36.856H56.1382V38.764H57.5662C59.1142 38.764 60.0262 39.556 60.0262 40.888C60.0262 42.208 59.1142 43 57.5662 43ZM62.2222 43H60.9262V36.856H62.2222V43ZM56.1382 39.796V41.968H57.3502C58.2262 41.968 58.7062 41.572 58.7062 40.888C58.7062 40.168 58.2262 39.796 57.3502 39.796H56.1382Z" fill="#A1A1A1"/>
</svg>
