<svg width="20" height="18" viewBox="0 0 20 18" fill="none" xmlns="http://www.w3.org/2000/svg">
<path d="M0 0.9934C0 0.44476 0.45531 0 0.9918 0H19.0082C19.556 0 20 0.44495 20 0.9934V17.0066C20 17.5552 19.5447 18 19.0082 18H0.9918C0.44405 18 0 17.5551 0 17.0066V0.9934ZM2 2V16H18V2H2ZM8.6219 5.41459L13.5008 8.6672C13.6846 8.7897 13.7343 9.0381 13.6117 9.2219C13.5824 9.2658 13.5447 9.3035 13.5008 9.3328L8.6219 12.5854C8.4381 12.708 8.1897 12.6583 8.0672 12.4745C8.0234 12.4088 8 12.3316 8 12.2526V5.74741C8 5.52649 8.1791 5.34741 8.4 5.34741C8.479 5.34741 8.5562 5.37078 8.6219 5.41459Z" fill="#C61F1F"/>
</svg>
